<mxfile host="app.diagrams.net" agent="Mozilla/5.0 (X11; Linux x86_64) AppleWebKit/537.36 (KHTML, like Gecko) Chrome/130.0.0.0 Safari/537.36" version="24.8.6">
  <diagram name="PÃ gina-1" id="YVHWd9X6C8wZxe6zpNKP">
    <mxGraphModel dx="2652" dy="1184" grid="1" gridSize="10" guides="1" tooltips="1" connect="1" arrows="1" fold="1" page="1" pageScale="1" pageWidth="827" pageHeight="1169" math="0" shadow="0">
      <root>
        <mxCell id="0" />
        <mxCell id="1" parent="0" />
        <mxCell id="Lixka0bkfkfRRr0ha4-1-7" value="Persona" style="swimlane;fontStyle=1;align=center;verticalAlign=top;childLayout=stackLayout;horizontal=1;startSize=26;horizontalStack=0;resizeParent=1;resizeParentMax=0;resizeLast=0;collapsible=1;marginBottom=0;whiteSpace=wrap;html=1;" parent="1" vertex="1">
          <mxGeometry x="560" y="50" width="340" height="160" as="geometry" />
        </mxCell>
        <mxCell id="Lixka0bkfkfRRr0ha4-1-8" value="+Nombre :String&lt;br&gt;- Telefono :Float&lt;br&gt;- Password :String" style="text;strokeColor=none;fillColor=none;align=left;verticalAlign=top;spacingLeft=4;spacingRight=4;overflow=hidden;rotatable=0;points=[[0,0.5],[1,0.5]];portConstraint=eastwest;whiteSpace=wrap;html=1;" parent="Lixka0bkfkfRRr0ha4-1-7" vertex="1">
          <mxGeometry y="26" width="340" height="54" as="geometry" />
        </mxCell>
        <mxCell id="Lixka0bkfkfRRr0ha4-1-9" value="" style="line;strokeWidth=1;fillColor=none;align=left;verticalAlign=middle;spacingTop=-1;spacingLeft=3;spacingRight=3;rotatable=0;labelPosition=right;points=[];portConstraint=eastwest;strokeColor=inherit;" parent="Lixka0bkfkfRRr0ha4-1-7" vertex="1">
          <mxGeometry y="80" width="340" height="8" as="geometry" />
        </mxCell>
        <mxCell id="Lixka0bkfkfRRr0ha4-1-10" value="+ persona(nombre:String,Telefon:Float, password:String)&lt;div&gt;+&amp;nbsp;&lt;span style=&quot;background-color: initial;&quot;&gt;getNombre(); | setNombre();&lt;/span&gt;&lt;/div&gt;&lt;div&gt;+&amp;nbsp;&lt;span style=&quot;background-color: initial;&quot;&gt;getTelefono(); | setTelefono();&lt;/span&gt;&lt;span style=&quot;background-color: initial;&quot;&gt;&lt;/span&gt;&lt;/div&gt;&lt;div&gt;+&amp;nbsp;&lt;span style=&quot;background-color: initial;&quot;&gt;getPassword(); | setPassword();&lt;/span&gt;&lt;span style=&quot;background-color: initial;&quot;&gt;&lt;/span&gt;&lt;/div&gt;" style="text;strokeColor=none;fillColor=none;align=left;verticalAlign=top;spacingLeft=4;spacingRight=4;overflow=hidden;rotatable=0;points=[[0,0.5],[1,0.5]];portConstraint=eastwest;whiteSpace=wrap;html=1;" parent="Lixka0bkfkfRRr0ha4-1-7" vertex="1">
          <mxGeometry y="88" width="340" height="72" as="geometry" />
        </mxCell>
        <mxCell id="GFX0a4tl2zZszdzhHsaF-4" style="edgeStyle=orthogonalEdgeStyle;rounded=0;orthogonalLoop=1;jettySize=auto;html=1;exitX=0.5;exitY=0;exitDx=0;exitDy=0;entryX=0;entryY=0.5;entryDx=0;entryDy=0;startArrow=none;startFill=0;endArrow=block;endFill=1;" parent="1" source="Lixka0bkfkfRRr0ha4-1-15" target="Lixka0bkfkfRRr0ha4-1-8" edge="1">
          <mxGeometry relative="1" as="geometry" />
        </mxCell>
        <mxCell id="Lixka0bkfkfRRr0ha4-1-15" value="Admin" style="swimlane;fontStyle=1;align=center;verticalAlign=top;childLayout=stackLayout;horizontal=1;startSize=26;horizontalStack=0;resizeParent=1;resizeParentMax=0;resizeLast=0;collapsible=1;marginBottom=0;whiteSpace=wrap;html=1;" parent="1" vertex="1">
          <mxGeometry x="40" y="150" width="460" height="120" as="geometry" />
        </mxCell>
        <mxCell id="Lixka0bkfkfRRr0ha4-1-16" value="&lt;div&gt;+ UsernameA&amp;nbsp;&lt;span style=&quot;background-color: initial;&quot;&gt;:String&lt;/span&gt;&lt;/div&gt;- isAdmin : int = 1" style="text;strokeColor=none;fillColor=none;align=left;verticalAlign=top;spacingLeft=4;spacingRight=4;overflow=hidden;rotatable=0;points=[[0,0.5],[1,0.5]];portConstraint=eastwest;whiteSpace=wrap;html=1;" parent="Lixka0bkfkfRRr0ha4-1-15" vertex="1">
          <mxGeometry y="26" width="460" height="34" as="geometry" />
        </mxCell>
        <mxCell id="Lixka0bkfkfRRr0ha4-1-17" value="" style="line;strokeWidth=1;fillColor=none;align=left;verticalAlign=middle;spacingTop=-1;spacingLeft=3;spacingRight=3;rotatable=0;labelPosition=right;points=[];portConstraint=eastwest;strokeColor=inherit;" parent="Lixka0bkfkfRRr0ha4-1-15" vertex="1">
          <mxGeometry y="60" width="460" height="8" as="geometry" />
        </mxCell>
        <mxCell id="Lixka0bkfkfRRr0ha4-1-18" value="+ Admin(nombre:String,Telefon:Float,password:String,UsernameA:StringisAdmin:int)&lt;div&gt;+&amp;nbsp;&lt;span style=&quot;background-color: initial;&quot;&gt;getUsernameA(); | setUsernameA();&lt;/span&gt;&lt;/div&gt;&lt;div&gt;+&amp;nbsp;&lt;span style=&quot;background-color: initial;&quot;&gt;getisAdmin(); | setisAdmin();&lt;/span&gt;&lt;span style=&quot;background-color: initial;&quot;&gt;&lt;/span&gt;&lt;/div&gt;" style="text;strokeColor=none;fillColor=none;align=left;verticalAlign=top;spacingLeft=4;spacingRight=4;overflow=hidden;rotatable=0;points=[[0,0.5],[1,0.5]];portConstraint=eastwest;whiteSpace=wrap;html=1;" parent="Lixka0bkfkfRRr0ha4-1-15" vertex="1">
          <mxGeometry y="68" width="460" height="52" as="geometry" />
        </mxCell>
        <mxCell id="GFX0a4tl2zZszdzhHsaF-5" style="edgeStyle=orthogonalEdgeStyle;rounded=0;orthogonalLoop=1;jettySize=auto;html=1;exitX=0.5;exitY=0;exitDx=0;exitDy=0;entryX=1;entryY=0.5;entryDx=0;entryDy=0;startArrow=none;startFill=0;endArrow=block;endFill=1;" parent="1" source="Lixka0bkfkfRRr0ha4-1-19" target="Lixka0bkfkfRRr0ha4-1-8" edge="1">
          <mxGeometry relative="1" as="geometry">
            <Array as="points">
              <mxPoint x="920" y="270" />
              <mxPoint x="920" y="103" />
            </Array>
          </mxGeometry>
        </mxCell>
        <mxCell id="Lixka0bkfkfRRr0ha4-1-19" value="Client" style="swimlane;fontStyle=1;align=center;verticalAlign=top;childLayout=stackLayout;horizontal=1;startSize=26;horizontalStack=0;resizeParent=1;resizeParentMax=0;resizeLast=0;collapsible=1;marginBottom=0;whiteSpace=wrap;html=1;" parent="1" vertex="1">
          <mxGeometry x="625" y="270" width="480" height="140" as="geometry" />
        </mxCell>
        <mxCell id="Lixka0bkfkfRRr0ha4-1-20" value="&lt;div&gt;+ UsernameC&amp;nbsp;&lt;span style=&quot;background-color: initial;&quot;&gt;:String&lt;br&gt;-isAdmin int = 0&lt;/span&gt;&lt;/div&gt;" style="text;strokeColor=none;fillColor=none;align=left;verticalAlign=top;spacingLeft=4;spacingRight=4;overflow=hidden;rotatable=0;points=[[0,0.5],[1,0.5]];portConstraint=eastwest;whiteSpace=wrap;html=1;" parent="Lixka0bkfkfRRr0ha4-1-19" vertex="1">
          <mxGeometry y="26" width="480" height="44" as="geometry" />
        </mxCell>
        <mxCell id="Lixka0bkfkfRRr0ha4-1-21" value="" style="line;strokeWidth=1;fillColor=none;align=left;verticalAlign=middle;spacingTop=-1;spacingLeft=3;spacingRight=3;rotatable=0;labelPosition=right;points=[];portConstraint=eastwest;strokeColor=inherit;" parent="Lixka0bkfkfRRr0ha4-1-19" vertex="1">
          <mxGeometry y="70" width="480" height="8" as="geometry" />
        </mxCell>
        <mxCell id="Lixka0bkfkfRRr0ha4-1-22" value="+ Client(nombre:String,Telefon:Float password:String,UsernameCString,isAdmin:int)&lt;div&gt;&lt;/div&gt;&lt;div&gt;+&amp;nbsp;&lt;span style=&quot;background-color: initial;&quot;&gt;getUsernameC(); | setUsernameC();&lt;/span&gt;&lt;/div&gt;&lt;div&gt;+&amp;nbsp;&lt;span style=&quot;background-color: initial;&quot;&gt;getIsAdmin(); | setIsAdmin();&lt;/span&gt;&lt;span style=&quot;background-color: initial;&quot;&gt;&lt;/span&gt;&lt;/div&gt;" style="text;strokeColor=none;fillColor=none;align=left;verticalAlign=top;spacingLeft=4;spacingRight=4;overflow=hidden;rotatable=0;points=[[0,0.5],[1,0.5]];portConstraint=eastwest;whiteSpace=wrap;html=1;" parent="Lixka0bkfkfRRr0ha4-1-19" vertex="1">
          <mxGeometry y="78" width="480" height="62" as="geometry" />
        </mxCell>
        <mxCell id="GFX0a4tl2zZszdzhHsaF-19" style="edgeStyle=orthogonalEdgeStyle;rounded=0;orthogonalLoop=1;jettySize=auto;html=1;entryX=0.004;entryY=0.8;entryDx=0;entryDy=0;startArrow=block;startFill=1;endArrow=none;endFill=0;entryPerimeter=0;startSize=6;" parent="1" source="Lixka0bkfkfRRr0ha4-1-23" target="Lixka0bkfkfRRr0ha4-1-28" edge="1">
          <mxGeometry relative="1" as="geometry" />
        </mxCell>
        <mxCell id="5QXQJG4AQmBrMs8_oDaH-20" style="edgeStyle=orthogonalEdgeStyle;rounded=0;orthogonalLoop=1;jettySize=auto;html=1;exitX=0.25;exitY=0;exitDx=0;exitDy=0;endArrow=none;endFill=0;" parent="1" source="Lixka0bkfkfRRr0ha4-1-23" target="Lixka0bkfkfRRr0ha4-1-19" edge="1">
          <mxGeometry relative="1" as="geometry" />
        </mxCell>
        <mxCell id="Lixka0bkfkfRRr0ha4-1-23" value="Reserva" style="swimlane;fontStyle=1;align=center;verticalAlign=top;childLayout=stackLayout;horizontal=1;startSize=26;horizontalStack=0;resizeParent=1;resizeParentMax=0;resizeLast=0;collapsible=1;marginBottom=0;whiteSpace=wrap;html=1;" parent="1" vertex="1">
          <mxGeometry x="920" y="679" width="310" height="160" as="geometry" />
        </mxCell>
        <mxCell id="Lixka0bkfkfRRr0ha4-1-24" value="+ IdReserva :int&lt;br&gt;+ IdExperiencia :int&lt;br&gt;+ Npersonas :int" style="text;strokeColor=none;fillColor=none;align=left;verticalAlign=top;spacingLeft=4;spacingRight=4;overflow=hidden;rotatable=0;points=[[0,0.5],[1,0.5]];portConstraint=eastwest;whiteSpace=wrap;html=1;" parent="Lixka0bkfkfRRr0ha4-1-23" vertex="1">
          <mxGeometry y="26" width="310" height="54" as="geometry" />
        </mxCell>
        <mxCell id="Lixka0bkfkfRRr0ha4-1-25" value="" style="line;strokeWidth=1;fillColor=none;align=left;verticalAlign=middle;spacingTop=-1;spacingLeft=3;spacingRight=3;rotatable=0;labelPosition=right;points=[];portConstraint=eastwest;strokeColor=inherit;" parent="Lixka0bkfkfRRr0ha4-1-23" vertex="1">
          <mxGeometry y="80" width="310" height="8" as="geometry" />
        </mxCell>
        <mxCell id="Lixka0bkfkfRRr0ha4-1-26" value="+ Reserva(IdReserva:int,IdExperiencia:int,Npersona:int)&lt;div&gt;+&amp;nbsp;&lt;span style=&quot;background-color: initial;&quot;&gt;getIDReserva(); | setIDReserva();&lt;/span&gt;&lt;/div&gt;&lt;div&gt;+&amp;nbsp;&lt;span style=&quot;background-color: initial;&quot;&gt;getIDExperiencia(); | setIDExperiencia();&lt;/span&gt;&lt;span style=&quot;background-color: initial;&quot;&gt;&lt;/span&gt;&lt;/div&gt;&lt;div&gt;+&amp;nbsp;&lt;span style=&quot;background-color: initial;&quot;&gt;getNPersonas(); | setNPersonas();&lt;/span&gt;&lt;span style=&quot;background-color: initial;&quot;&gt;&lt;/span&gt;&lt;/div&gt;&lt;div&gt;&lt;span style=&quot;background-color: initial;&quot;&gt;&lt;br&gt;&lt;/span&gt;&lt;/div&gt;" style="text;strokeColor=none;fillColor=none;align=left;verticalAlign=top;spacingLeft=4;spacingRight=4;overflow=hidden;rotatable=0;points=[[0,0.5],[1,0.5]];portConstraint=eastwest;whiteSpace=wrap;html=1;" parent="Lixka0bkfkfRRr0ha4-1-23" vertex="1">
          <mxGeometry y="88" width="310" height="72" as="geometry" />
        </mxCell>
        <mxCell id="GFX0a4tl2zZszdzhHsaF-20" style="edgeStyle=orthogonalEdgeStyle;rounded=0;orthogonalLoop=1;jettySize=auto;html=1;entryX=1;entryY=0.5;entryDx=0;entryDy=0;endArrow=block;endFill=1;" parent="1" source="Lixka0bkfkfRRr0ha4-1-27" target="Lixka0bkfkfRRr0ha4-1-37" edge="1">
          <mxGeometry relative="1" as="geometry" />
        </mxCell>
        <mxCell id="Lixka0bkfkfRRr0ha4-1-27" value="AcciÃ³" style="swimlane;fontStyle=1;align=center;verticalAlign=top;childLayout=stackLayout;horizontal=1;startSize=26;horizontalStack=0;resizeParent=1;resizeParentMax=0;resizeLast=0;collapsible=1;marginBottom=0;whiteSpace=wrap;html=1;" parent="1" vertex="1">
          <mxGeometry x="1370" y="530" width="260" height="130" as="geometry" />
        </mxCell>
        <mxCell id="Lixka0bkfkfRRr0ha4-1-28" value="+ IdReserva: int&lt;div&gt;+ Nombre: String&lt;/div&gt;" style="text;strokeColor=none;fillColor=none;align=left;verticalAlign=top;spacingLeft=4;spacingRight=4;overflow=hidden;rotatable=0;points=[[0,0.5],[1,0.5]];portConstraint=eastwest;whiteSpace=wrap;html=1;" parent="Lixka0bkfkfRRr0ha4-1-27" vertex="1">
          <mxGeometry y="26" width="260" height="44" as="geometry" />
        </mxCell>
        <mxCell id="Lixka0bkfkfRRr0ha4-1-29" value="" style="line;strokeWidth=1;fillColor=none;align=left;verticalAlign=middle;spacingTop=-1;spacingLeft=3;spacingRight=3;rotatable=0;labelPosition=right;points=[];portConstraint=eastwest;strokeColor=inherit;" parent="Lixka0bkfkfRRr0ha4-1-27" vertex="1">
          <mxGeometry y="70" width="260" height="8" as="geometry" />
        </mxCell>
        <mxCell id="Lixka0bkfkfRRr0ha4-1-30" value="&lt;div&gt;+&amp;nbsp;&lt;span style=&quot;background-color: initial;&quot;&gt;getIDReserva(); | setIDReserva();&lt;/span&gt;&lt;/div&gt;&lt;div&gt;+&amp;nbsp;&lt;span style=&quot;background-color: initial;&quot;&gt;getNombre(); | setNombre();&lt;/span&gt;&lt;/div&gt;&lt;div&gt;&lt;span style=&quot;background-color: initial;&quot;&gt;&lt;br&gt;&lt;/span&gt;&lt;/div&gt;" style="text;strokeColor=none;fillColor=none;align=left;verticalAlign=top;spacingLeft=4;spacingRight=4;overflow=hidden;rotatable=0;points=[[0,0.5],[1,0.5]];portConstraint=eastwest;whiteSpace=wrap;html=1;" parent="Lixka0bkfkfRRr0ha4-1-27" vertex="1">
          <mxGeometry y="78" width="260" height="52" as="geometry" />
        </mxCell>
        <mxCell id="5QXQJG4AQmBrMs8_oDaH-2" style="edgeStyle=orthogonalEdgeStyle;rounded=0;orthogonalLoop=1;jettySize=auto;html=1;entryX=1;entryY=0.5;entryDx=0;entryDy=0;startArrow=none;startFill=0;endArrow=none;endFill=0;" parent="1" source="Lixka0bkfkfRRr0ha4-1-36" target="Lixka0bkfkfRRr0ha4-1-20" edge="1">
          <mxGeometry relative="1" as="geometry" />
        </mxCell>
        <mxCell id="Lixka0bkfkfRRr0ha4-1-36" value="ReservaCancelada" style="swimlane;fontStyle=1;align=center;verticalAlign=top;childLayout=stackLayout;horizontal=1;startSize=26;horizontalStack=0;resizeParent=1;resizeParentMax=0;resizeLast=0;collapsible=1;marginBottom=0;whiteSpace=wrap;html=1;" parent="1" vertex="1">
          <mxGeometry x="1146" y="130" width="330" height="120" as="geometry" />
        </mxCell>
        <mxCell id="Lixka0bkfkfRRr0ha4-1-37" value="+ IdReserva :int&lt;br&gt;+ FechaCancelada :date" style="text;strokeColor=none;fillColor=none;align=left;verticalAlign=top;spacingLeft=4;spacingRight=4;overflow=hidden;rotatable=0;points=[[0,0.5],[1,0.5]];portConstraint=eastwest;whiteSpace=wrap;html=1;" parent="Lixka0bkfkfRRr0ha4-1-36" vertex="1">
          <mxGeometry y="26" width="330" height="34" as="geometry" />
        </mxCell>
        <mxCell id="Lixka0bkfkfRRr0ha4-1-38" value="" style="line;strokeWidth=1;fillColor=none;align=left;verticalAlign=middle;spacingTop=-1;spacingLeft=3;spacingRight=3;rotatable=0;labelPosition=right;points=[];portConstraint=eastwest;strokeColor=inherit;" parent="Lixka0bkfkfRRr0ha4-1-36" vertex="1">
          <mxGeometry y="60" width="330" height="8" as="geometry" />
        </mxCell>
        <mxCell id="Lixka0bkfkfRRr0ha4-1-39" value="+ ReservaCancelada(IdReserva,int FechaCancelada:date)&lt;div&gt;+&amp;nbsp;&lt;span style=&quot;background-color: initial;&quot;&gt;getIDReserva(); | setIDReserva();&lt;/span&gt;&lt;/div&gt;&lt;div&gt;+&amp;nbsp;&lt;span style=&quot;background-color: initial;&quot;&gt;getFechaCancelada(); | setFechaCancelada();&lt;/span&gt;&lt;span style=&quot;background-color: initial;&quot;&gt;&lt;/span&gt;&lt;/div&gt;" style="text;strokeColor=none;fillColor=none;align=left;verticalAlign=top;spacingLeft=4;spacingRight=4;overflow=hidden;rotatable=0;points=[[0,0.5],[1,0.5]];portConstraint=eastwest;whiteSpace=wrap;html=1;" parent="Lixka0bkfkfRRr0ha4-1-36" vertex="1">
          <mxGeometry y="68" width="330" height="52" as="geometry" />
        </mxCell>
        <mxCell id="Lixka0bkfkfRRr0ha4-1-44" value="Oferta" style="swimlane;fontStyle=1;align=center;verticalAlign=top;childLayout=stackLayout;horizontal=1;startSize=26;horizontalStack=0;resizeParent=1;resizeParentMax=0;resizeLast=0;collapsible=1;marginBottom=0;whiteSpace=wrap;html=1;" parent="1" vertex="1">
          <mxGeometry x="180" y="649" width="640" height="280" as="geometry" />
        </mxCell>
        <mxCell id="Lixka0bkfkfRRr0ha4-1-45" value="+ IdExperiencia : int&lt;br&gt;+ FechaHora :Date&lt;br&gt;+ Descripcion :String&lt;br&gt;+ Modalidad :int&lt;br&gt;+ Precio : Float&lt;br&gt;+ IdCategoria :int&lt;br&gt;+ Personas :int" style="text;strokeColor=none;fillColor=none;align=left;verticalAlign=top;spacingLeft=4;spacingRight=4;overflow=hidden;rotatable=0;points=[[0,0.5],[1,0.5]];portConstraint=eastwest;whiteSpace=wrap;html=1;" parent="Lixka0bkfkfRRr0ha4-1-44" vertex="1">
          <mxGeometry y="26" width="640" height="114" as="geometry" />
        </mxCell>
        <mxCell id="Lixka0bkfkfRRr0ha4-1-46" value="" style="line;strokeWidth=1;fillColor=none;align=left;verticalAlign=middle;spacingTop=-1;spacingLeft=3;spacingRight=3;rotatable=0;labelPosition=right;points=[];portConstraint=eastwest;strokeColor=inherit;" parent="Lixka0bkfkfRRr0ha4-1-44" vertex="1">
          <mxGeometry y="140" width="640" height="8" as="geometry" />
        </mxCell>
        <mxCell id="Lixka0bkfkfRRr0ha4-1-47" value="+ Tienda(idExperiencia:int,FechHora:Date,Descripcion:String,Modalidad:int,Precio:Float IdCategoria:int,Persona:int)&lt;div&gt;+ getIDExperiencia(); | setIDExperiencia();&lt;/div&gt;&lt;div&gt;+ getFechaHora(); | setFechaHora();&lt;/div&gt;&lt;div&gt;+ getDescripcion(); | setDescripcion();&lt;/div&gt;&lt;div&gt;+ getModalidad(); | setModalidad()&lt;/div&gt;&lt;div&gt;+ getPrecio(); | setPrecio();&lt;/div&gt;&lt;div&gt;+ getIDCategoria(); | setIDCategoria();&lt;/div&gt;&lt;div&gt;+ getPersonas(); | setPersonas();&lt;/div&gt;" style="text;strokeColor=none;fillColor=none;align=left;verticalAlign=top;spacingLeft=4;spacingRight=4;overflow=hidden;rotatable=0;points=[[0,0.5],[1,0.5]];portConstraint=eastwest;whiteSpace=wrap;html=1;" parent="Lixka0bkfkfRRr0ha4-1-44" vertex="1">
          <mxGeometry y="148" width="640" height="132" as="geometry" />
        </mxCell>
        <mxCell id="GFX0a4tl2zZszdzhHsaF-16" value="" style="edgeStyle=orthogonalEdgeStyle;rounded=0;orthogonalLoop=1;jettySize=auto;html=1;entryX=0;entryY=0.5;entryDx=0;entryDy=0;endArrow=diamondThin;endFill=1;strokeWidth=1;endSize=18;" parent="1" source="Lixka0bkfkfRRr0ha4-1-45" target="Lixka0bkfkfRRr0ha4-1-24" edge="1">
          <mxGeometry relative="1" as="geometry" />
        </mxCell>
        <mxCell id="5QXQJG4AQmBrMs8_oDaH-5" value="1..1" style="text;html=1;align=center;verticalAlign=middle;resizable=0;points=[];autosize=1;strokeColor=none;fillColor=none;fontSize=16;" parent="1" vertex="1">
          <mxGeometry x="1250" y="250" width="50" height="30" as="geometry" />
        </mxCell>
        <mxCell id="5QXQJG4AQmBrMs8_oDaH-12" value="0..&lt;span style=&quot;background-color: initial;&quot;&gt;*&lt;/span&gt;" style="text;html=1;align=center;verticalAlign=middle;resizable=0;points=[];autosize=1;strokeColor=none;fillColor=none;fontSize=16;" parent="1" vertex="1">
          <mxGeometry x="1475" y="140" width="50" height="30" as="geometry" />
        </mxCell>
        <mxCell id="5QXQJG4AQmBrMs8_oDaH-14" value="1..*" style="text;html=1;align=center;verticalAlign=middle;resizable=0;points=[];autosize=1;strokeColor=none;fillColor=none;fontSize=16;" parent="1" vertex="1">
          <mxGeometry x="350" y="610" width="50" height="30" as="geometry" />
        </mxCell>
        <mxCell id="5QXQJG4AQmBrMs8_oDaH-15" value="0..*" style="text;html=1;align=center;verticalAlign=middle;resizable=0;points=[];autosize=1;strokeColor=none;fillColor=none;strokeWidth=1;fontSize=16;" parent="1" vertex="1">
          <mxGeometry x="570" y="325" width="50" height="30" as="geometry" />
        </mxCell>
        <mxCell id="5QXQJG4AQmBrMs8_oDaH-19" value="1..*" style="text;html=1;align=center;verticalAlign=middle;resizable=0;points=[];autosize=1;strokeColor=none;fillColor=none;fontSize=16;" parent="1" vertex="1">
          <mxGeometry x="825" y="700" width="50" height="30" as="geometry" />
        </mxCell>
        <mxCell id="5QXQJG4AQmBrMs8_oDaH-21" value="1..*" style="text;html=1;align=center;verticalAlign=middle;resizable=0;points=[];autosize=1;strokeColor=none;fillColor=none;fontSize=16;" parent="1" vertex="1">
          <mxGeometry x="940" y="640" width="50" height="30" as="geometry" />
        </mxCell>
        <mxCell id="JiUST0wYzpxgj7eOSZ98-1" value="1..1" style="text;html=1;align=center;verticalAlign=middle;resizable=0;points=[];autosize=1;strokeColor=none;fillColor=none;fontSize=16;" vertex="1" parent="1">
          <mxGeometry x="875" y="420" width="50" height="30" as="geometry" />
        </mxCell>
        <mxCell id="JiUST0wYzpxgj7eOSZ98-2" value="1" style="text;html=1;align=center;verticalAlign=middle;resizable=0;points=[];autosize=1;strokeColor=none;fillColor=none;fontSize=16;" vertex="1" parent="1">
          <mxGeometry x="1080" y="640" width="30" height="30" as="geometry" />
        </mxCell>
        <mxCell id="JiUST0wYzpxgj7eOSZ98-4" value="0..*" style="text;html=1;align=center;verticalAlign=middle;resizable=0;points=[];autosize=1;strokeColor=none;fillColor=none;fontSize=16;" vertex="1" parent="1">
          <mxGeometry x="1430" y="500" width="50" height="30" as="geometry" />
        </mxCell>
        <mxCell id="JiUST0wYzpxgj7eOSZ98-8" value="1..1" style="text;html=1;align=center;verticalAlign=middle;resizable=0;points=[];autosize=1;strokeColor=none;fillColor=none;fontSize=16;" vertex="1" parent="1">
          <mxGeometry x="1320" y="600" width="50" height="30" as="geometry" />
        </mxCell>
        <mxCell id="JiUST0wYzpxgj7eOSZ98-10" value="1..1" style="text;html=1;align=center;verticalAlign=middle;resizable=0;points=[];autosize=1;strokeColor=none;fillColor=none;fontSize=16;" vertex="1" parent="1">
          <mxGeometry x="1116" y="290" width="50" height="30" as="geometry" />
        </mxCell>
        <mxCell id="JiUST0wYzpxgj7eOSZ98-11" value="1..1" style="text;html=1;align=center;verticalAlign=middle;resizable=0;points=[];autosize=1;strokeColor=none;fillColor=none;fontSize=16;" vertex="1" parent="1">
          <mxGeometry x="920" y="40" width="50" height="30" as="geometry" />
        </mxCell>
        <mxCell id="JiUST0wYzpxgj7eOSZ98-16" style="edgeStyle=orthogonalEdgeStyle;rounded=0;orthogonalLoop=1;jettySize=auto;html=1;entryX=1.007;entryY=0.068;entryDx=0;entryDy=0;entryPerimeter=0;exitX=0.583;exitY=-0.009;exitDx=0;exitDy=0;exitPerimeter=0;endArrow=block;endFill=1;endSize=6;" edge="1" parent="1" source="Lixka0bkfkfRRr0ha4-1-27" target="Lixka0bkfkfRRr0ha4-1-8">
          <mxGeometry relative="1" as="geometry" />
        </mxCell>
        <mxCell id="JiUST0wYzpxgj7eOSZ98-17" style="edgeStyle=orthogonalEdgeStyle;rounded=0;orthogonalLoop=1;jettySize=auto;html=1;entryX=0.352;entryY=0.014;entryDx=0;entryDy=0;entryPerimeter=0;endArrow=diamondThin;endFill=1;endSize=16;" edge="1" parent="1" source="Lixka0bkfkfRRr0ha4-1-15" target="Lixka0bkfkfRRr0ha4-1-44">
          <mxGeometry relative="1" as="geometry" />
        </mxCell>
        <mxCell id="JiUST0wYzpxgj7eOSZ98-18" style="edgeStyle=orthogonalEdgeStyle;rounded=0;orthogonalLoop=1;jettySize=auto;html=1;entryX=0.5;entryY=0;entryDx=0;entryDy=0;endArrow=diamondThin;endFill=1;endSize=16;" edge="1" parent="1" source="Lixka0bkfkfRRr0ha4-1-20" target="Lixka0bkfkfRRr0ha4-1-44">
          <mxGeometry relative="1" as="geometry" />
        </mxCell>
        <mxCell id="JiUST0wYzpxgj7eOSZ98-19" value="0..*" style="text;html=1;align=center;verticalAlign=middle;resizable=0;points=[];autosize=1;strokeColor=none;fillColor=none;strokeWidth=1;fontSize=16;" vertex="1" parent="1">
          <mxGeometry x="279" y="280" width="50" height="30" as="geometry" />
        </mxCell>
        <mxCell id="JiUST0wYzpxgj7eOSZ98-22" value="1..*" style="text;html=1;align=center;verticalAlign=middle;resizable=0;points=[];autosize=1;strokeColor=none;fillColor=none;fontSize=16;" vertex="1" parent="1">
          <mxGeometry x="510" y="619" width="50" height="30" as="geometry" />
        </mxCell>
        <mxCell id="JiUST0wYzpxgj7eOSZ98-23" value="0..*" style="text;html=1;align=center;verticalAlign=middle;resizable=0;points=[];autosize=1;strokeColor=none;fillColor=none;fontSize=16;" vertex="1" parent="1">
          <mxGeometry x="1530" y="500" width="50" height="30" as="geometry" />
        </mxCell>
      </root>
    </mxGraphModel>
  </diagram>
</mxfile>
